# Blender v2.77 (sub 0) OBJ File: ''
# www.blender.org
mtllib SharpClaw Landmine.mtl
o MODELS_bin_066:poly000
v -0.066016 0.225781 0.000000
v 0.000000 0.264844 0.000000
v -0.057031 0.225781 0.032813
v -0.032813 0.225781 0.057031
v 0.032813 0.225781 0.057031
v 0.074219 0.203125 0.128906
v 0.000000 0.225781 0.066016
v 0.000000 0.203125 0.148828
v -0.057031 0.225781 -0.032812
v -0.128906 0.203125 -0.074219
v -0.032813 0.225781 -0.057031
v -0.074219 0.203125 -0.128906
v 0.066016 0.225781 0.000000
v 0.057031 0.225781 0.032813
v 0.254297 0.101953 0.000000
v 0.220313 0.101953 -0.126953
v 0.207813 0.043359 0.000000
v 0.179688 0.043359 -0.103906
v 0.148828 0.024609 0.000000
v 0.128906 0.024609 -0.074219
v 0.066016 0.014453 0.000000
v 0.057031 0.014453 -0.032813
v 0.000000 -0.014844 -0.000000
v 0.032813 0.014453 -0.057031
v 0.000000 0.014453 -0.066016
v 0.000000 0.024609 -0.148828
v -0.254297 0.101953 0.000000
v -0.220313 0.101953 0.126953
v -0.207813 0.043359 0.000000
v -0.179688 0.043359 0.103906
v -0.148828 0.024609 0.000000
v -0.128906 0.024609 0.074219
v -0.066016 0.014453 0.000000
v -0.057031 0.014453 0.032813
v -0.032813 0.014453 0.057031
v 0.000000 0.014453 0.066016
v 0.000000 0.024609 0.148828
v 0.057031 0.225781 -0.032812
v 0.128906 0.203125 -0.074219
v 0.148828 0.203125 0.000000
v -0.074219 0.203125 0.128906
v -0.128906 0.203125 0.074219
v 0.207813 0.164063 0.000000
v 0.179688 0.164063 -0.103906
v 0.126953 0.101953 -0.220313
v 0.103906 0.164063 -0.179688
v 0.000000 0.101953 -0.254297
v 0.000000 0.164063 -0.207813
v -0.148828 0.203125 0.000000
v -0.207813 0.164063 0.000000
v -0.179688 0.164063 0.103906
v -0.126953 0.101953 0.220313
v -0.103906 0.164063 0.179688
v 0.000000 0.101953 0.254297
v 0.000000 0.164063 0.207813
v 0.126953 0.101953 0.220313
v 0.000000 0.043359 0.207813
v 0.103906 0.043359 0.179688
v 0.074219 0.024609 0.128906
v 0.032813 0.014453 0.057031
v 0.057031 0.014453 0.032813
v 0.128906 0.203125 0.074219
v -0.126953 0.101953 -0.220313
v 0.000000 0.043359 -0.207813
v -0.103906 0.043359 -0.179688
v -0.074219 0.024609 -0.128906
v -0.032813 0.014453 -0.057031
v -0.057031 0.014453 -0.032813
v -0.103906 0.164063 -0.179688
v -0.220313 0.101953 -0.126953
v -0.179688 0.164063 -0.103906
v 0.000000 0.225781 -0.066016
v 0.000000 0.203125 -0.148828
v 0.032813 0.225781 -0.057031
v 0.074219 0.203125 -0.128906
v 0.103906 0.164063 0.179688
v 0.220313 0.101953 0.126953
v 0.179688 0.164063 0.103906
v 0.103906 0.043359 -0.179688
v 0.074219 0.024609 -0.128906
v 0.179688 0.043359 0.103906
v 0.128906 0.024609 0.074219
v -0.103906 0.043359 0.179688
v -0.074219 0.024609 0.128906
v -0.179688 0.043359 -0.103906
v -0.128906 0.024609 -0.074219
vt 1.0000 0.3359
vt 0.6738 0.3359
vt 0.5000 0.1172
vt 0.3496 0.3359
vt 0.6738 0.3359
vt 1.0000 0.3359
vt 0.6738 0.5391
vt 1.0000 0.5391
vt 0.3496 0.3359
vt 0.6738 0.3359
vt 0.3496 0.5391
vt 0.6738 0.5391
vt 0.0000 0.3359
vt 0.3496 0.3359
vt 1.0000 1.2764
vt 1.0000 0.7871
vt 0.6738 1.2764
vt 0.6738 0.7871
vt 1.0000 0.5391
vt 0.6738 0.5391
vt 1.0000 0.3359
vt 0.6738 0.3359
vt 0.5000 0.1172
vt 0.3496 0.3359
vt 0.0000 0.3359
vt 0.0000 0.5391
vt 1.0000 1.2764
vt 1.0000 0.7871
vt 0.6738 1.2764
vt 0.6738 0.7871
vt 1.0000 0.5391
vt 0.6738 0.5391
vt 1.0000 0.3359
vt 0.6738 0.3359
vt 0.3496 0.3359
vt 0.0000 0.3359
vt 0.0000 0.5391
vt 0.6738 0.3359
vt 1.0000 0.3359
vt 0.6738 0.5391
vt 1.0000 0.5391
vt 0.3496 0.5391
vt 0.6738 0.5391
vt 1.0000 0.7871
vt 0.6738 0.7871
vt 0.3496 1.2764
vt 0.3496 0.7871
vt 0.0000 1.2764
vt 0.0000 0.7871
vt 1.0000 0.5391
vt 1.0000 0.7871
vt 0.6738 0.7871
vt 0.3496 1.2764
vt 0.3496 0.7871
vt 0.0000 1.2764
vt 0.0000 0.7871
vt 1.0000 1.2764
vt 1.0000 0.7871
vt 0.6738 1.2764
vt 0.6738 0.7871
vt 1.0000 0.5391
vt 0.6738 0.5391
vt 1.0000 0.3359
vt 0.6738 0.3359
vt 0.3496 0.3359
vt 0.0000 0.3359
vt 0.0000 0.5391
vt 0.3496 0.5391
vt 1.0000 1.2764
vt 1.0000 0.7871
vt 0.6738 1.2764
vt 0.6738 0.7871
vt 1.0000 0.5391
vt 0.6738 0.5391
vt 1.0000 0.3359
vt 0.6738 0.3359
vt 0.3496 0.3359
vt 0.0000 0.3359
vt 0.0000 0.5391
vt 1.0000 0.7871
vt 0.6738 0.7871
vt 0.3496 1.2764
vt 0.3496 0.7871
vt 0.0000 1.2764
vt 0.0000 0.7871
vt 0.0000 0.3359
vt 0.3496 0.3359
vt 0.0000 0.5391
vt 0.3496 0.5391
vt 1.0000 0.7871
vt 0.6738 0.7871
vt 0.3496 1.2764
vt 0.3496 0.7871
vt 0.0000 1.2764
vt 0.0000 0.7871
vt 0.0000 0.3359
vt 0.0000 0.5391
vt 1.0000 0.3359
vt 1.0000 0.5391
vt 0.0000 0.5391
vt 0.0000 0.3359
vt 0.0000 0.5391
vt 0.3496 0.7871
vt 0.3496 0.5391
vt 0.0000 0.7871
vt 0.3496 0.7871
vt 0.0000 0.7871
vt 0.3496 0.5391
vt 0.3496 0.7871
vt 0.0000 0.7871
vt 0.3496 0.5391
vt 0.3496 0.7871
vt 0.0000 0.7871
vt 0.3496 0.5391
vn -0.6392 0.7690 0.0000
vn -0.5539 0.7693 0.3183
vn -0.0000 1.0000 0.0000
vn -0.3183 0.7693 0.5539
vn 0.2115 0.9342 0.2874
vn -0.0609 0.9290 0.3649
vn 0.2410 0.8808 0.4075
vn -0.0000 0.8850 0.4655
vn -0.3296 0.9324 -0.1484
vn -0.1299 0.9318 -0.3390
vn -0.4071 0.8811 -0.2406
vn -0.2410 0.8808 -0.4075
vn 0.6392 0.7690 -0.0000
vn 0.5539 0.7693 0.3183
vn 0.3183 0.7693 0.5539
vn 0.0000 0.7690 0.6392
vn 0.7764 -0.6303 -0.0001
vn 0.6114 -0.7899 -0.0474
vn 0.6713 -0.6297 -0.3909
vn 0.5344 -0.8069 -0.2519
vn 0.2360 -0.9714 -0.0248
vn 0.2023 -0.9761 -0.0794
vn 0.2271 -0.9737 0.0190
vn 0.2065 -0.9694 -0.1328
vn 0.0000 -1.0000 -0.0000
vn 0.1294 -0.9707 -0.2025
vn 0.0242 -0.9713 -0.2366
vn -0.0088 -0.9677 -0.2518
vn -0.7764 -0.6303 0.0001
vn -0.6114 -0.7899 0.0474
vn -0.6713 -0.6297 0.3909
vn -0.5344 -0.8069 0.2519
vn -0.2360 -0.9714 0.0248
vn -0.2023 -0.9761 0.0794
vn -0.2271 -0.9737 -0.0190
vn -0.2065 -0.9694 0.1328
vn -0.1294 -0.9707 0.2025
vn -0.0242 -0.9713 0.2366
vn 0.0088 -0.9677 0.2518
vn 0.2874 0.9342 -0.2115
vn 0.3649 0.9290 0.0609
vn 0.4075 0.8808 -0.2410
vn 0.4655 0.8850 0.0000
vn -0.1484 0.9324 0.3296
vn -0.3390 0.9318 0.1299
vn -0.2406 0.8811 0.4071
vn -0.4075 0.8808 0.2410
vn 0.7982 0.6023 -0.0001
vn 0.6958 0.6005 -0.3941
vn 0.7090 0.7046 -0.0296
vn 0.6019 0.7295 -0.3249
vn 0.3937 0.6017 -0.6950
vn 0.3801 0.7042 -0.5997
vn -0.0001 0.6023 -0.7982
vn 0.0321 0.7169 -0.6965
vn -0.2874 0.9342 0.2115
vn -0.3649 0.9290 -0.0609
vn -0.4655 0.8850 -0.0000
vn -0.7982 0.6023 0.0001
vn -0.6958 0.6005 0.3941
vn -0.7090 0.7046 0.0296
vn -0.6019 0.7295 0.3249
vn -0.3937 0.6017 0.6950
vn -0.3801 0.7042 0.5997
vn 0.0001 0.6023 0.7982
vn -0.0321 0.7169 0.6965
vn 0.0001 -0.6303 0.7764
vn 0.0474 -0.7899 0.6114
vn 0.3909 -0.6297 0.6714
vn 0.2519 -0.8069 0.5344
vn 0.0794 -0.9761 0.2023
vn 0.1328 -0.9694 0.2065
vn 0.2025 -0.9707 0.1294
vn 0.3296 0.9324 0.1484
vn 0.1299 0.9318 0.3390
vn 0.4071 0.8811 0.2406
vn -0.0001 -0.6303 -0.7764
vn -0.0474 -0.7899 -0.6114
vn -0.3909 -0.6297 -0.6714
vn -0.2519 -0.8069 -0.5344
vn -0.0794 -0.9761 -0.2023
vn -0.1328 -0.9694 -0.2065
vn -0.2025 -0.9707 -0.1294
vn -0.3941 0.6005 -0.6958
vn -0.3249 0.7295 -0.6019
vn -0.6950 0.6017 -0.3937
vn -0.5997 0.7042 -0.3801
vn -0.0592 0.9287 -0.3661
vn 0.2308 0.9293 -0.2884
vn 0.0000 0.8850 -0.4655
vn 0.2406 0.8811 -0.4071
vn 0.3941 0.6005 0.6958
vn 0.3249 0.7295 0.6019
vn 0.6950 0.6017 0.3937
vn 0.5997 0.7042 0.3801
vn 0.1484 0.9324 -0.3296
vn 0.3390 0.9318 -0.1299
vn -0.3598 0.9325 0.0311
vn -0.2884 0.9293 -0.2308
vn 0.5539 0.7693 -0.3183
vn 0.3183 0.7693 -0.5539
vn -0.5539 0.7693 -0.3183
vn -0.1898 0.9230 -0.3347
vn -0.0053 0.9249 -0.3801
vn 0.3598 0.9325 -0.0311
vn 0.2884 0.9293 0.2308
vn 0.0311 0.9325 0.3598
vn -0.2308 0.9293 0.2884
vn 0.3906 -0.6308 -0.6705
vn 0.3388 -0.8069 -0.4838
vn 0.1422 -0.9739 -0.1770
vn 0.6705 -0.6308 0.3906
vn 0.5540 -0.7894 0.2644
vn 0.2197 -0.9717 0.0872
vn -0.3906 -0.6308 0.6705
vn -0.2644 -0.7894 0.5540
vn -0.0872 -0.9717 0.2197
vn -0.6705 -0.6308 -0.3906
vn -0.5540 -0.7894 -0.2644
vn -0.2197 -0.9717 -0.0872
usemtl None
s 1
f 1/1/1 3/2/2 2/3/3
f 2/3/3 3/2/2 4/4/4
f 5/5/5 7/6/6 6/7/7
f 6/7/7 7/6/6 8/8/8
f 9/9/9 11/10/10 10/11/11
f 10/11/11 11/10/10 12/12/12
f 13/13/13 2/3/3 14/14/14
f 14/14/14 2/3/3 5/5/15
f 2/3/3 7/6/16 5/5/15
f 15/15/17 17/16/18 16/17/19
f 16/17/19 17/16/18 18/18/20
f 17/16/18 19/19/21 18/18/20
f 18/18/20 19/19/21 20/20/22
f 19/19/21 21/21/23 20/20/22
f 20/20/22 21/21/23 22/22/24
f 21/21/23 23/23/25 22/22/24
f 22/22/24 23/23/25 24/24/26
f 23/23/25 25/25/27 24/24/26
f 24/24/26 25/25/27 26/26/28
f 27/27/29 29/28/30 28/29/31
f 28/29/31 29/28/30 30/30/32
f 29/28/30 31/31/33 30/30/32
f 30/30/32 31/31/33 32/32/34
f 31/31/33 33/33/35 32/32/34
f 32/32/34 33/33/35 34/34/36
f 33/33/35 23/23/25 34/34/36
f 34/34/36 23/23/25 35/35/37
f 23/23/25 36/36/38 35/35/37
f 35/35/37 36/36/38 37/37/39
f 38/38/40 13/39/41 39/40/42
f 39/40/42 13/39/41 40/41/43
f 4/4/44 3/2/45 41/42/46
f 41/42/46 3/2/45 42/43/47
f 15/15/48 16/17/49 43/44/50
f 43/44/50 16/17/49 44/45/51
f 16/17/49 45/46/52 44/45/51
f 44/45/51 45/46/52 46/47/53
f 45/46/52 47/48/54 46/47/53
f 46/47/53 47/48/54 48/49/55
f 3/2/56 1/1/57 42/43/47
f 42/43/47 1/1/57 49/50/58
f 27/27/59 28/29/60 50/51/61
f 50/51/61 28/29/60 51/52/62
f 28/29/60 52/53/63 51/52/62
f 51/52/62 52/53/63 53/54/64
f 52/53/63 54/55/65 53/54/64
f 53/54/64 54/55/65 55/56/66
f 54/57/67 57/58/68 56/59/69
f 56/59/69 57/58/68 58/60/70
f 57/58/68 37/61/39 58/60/70
f 58/60/70 37/61/39 59/62/71
f 37/61/39 36/63/38 59/62/71
f 59/62/71 36/63/38 60/64/72
f 36/63/38 23/23/25 60/64/72
f 60/64/72 23/23/25 61/65/73
f 23/23/25 21/66/23 61/65/73
f 61/65/73 21/66/23 19/67/21
f 14/14/74 5/5/75 62/68/76
f 62/68/76 5/5/75 6/7/7
f 47/69/77 64/70/78 63/71/79
f 63/71/79 64/70/78 65/72/80
f 64/70/78 26/73/28 65/72/80
f 65/72/80 26/73/28 66/74/81
f 26/73/28 25/75/27 66/74/81
f 66/74/81 25/75/27 67/76/82
f 25/75/27 23/23/25 67/76/82
f 67/76/82 23/23/25 68/77/83
f 23/23/25 33/78/35 68/77/83
f 68/77/83 33/78/35 31/79/33
f 47/69/54 63/71/84 48/80/55
f 48/80/55 63/71/84 69/81/85
f 63/71/84 70/82/86 69/81/85
f 69/81/85 70/82/86 71/83/87
f 70/82/86 27/84/59 71/83/87
f 71/83/87 27/84/59 50/85/61
f 72/86/88 74/87/89 73/88/90
f 73/88/90 74/87/89 75/89/91
f 54/57/65 56/59/92 55/90/66
f 55/90/66 56/59/92 76/91/93
f 56/59/92 77/92/94 76/91/93
f 76/91/93 77/92/94 78/93/95
f 77/92/94 15/94/48 78/93/95
f 78/93/95 15/94/48 43/95/50
f 74/87/96 38/38/97 75/89/91
f 75/89/91 38/38/97 39/40/42
f 1/96/98 9/9/99 49/97/58
f 49/97/58 9/9/99 10/11/11
f 13/39/13 38/38/100 2/3/3
f 2/3/3 38/38/100 74/87/101
f 1/96/1 2/3/3 9/9/102
f 9/9/102 2/3/3 11/10/103
f 2/3/3 72/98/104 11/10/103
f 11/10/103 72/98/104 12/12/12
f 72/98/104 73/99/90 12/12/12
f 12/12/12 73/99/90 69/81/85
f 73/99/90 48/80/55 69/81/85
f 13/13/105 14/14/106 40/100/43
f 40/100/43 14/14/106 62/68/76
f 7/101/107 4/4/108 8/102/8
f 8/102/8 4/4/108 41/42/46
f 16/17/19 18/18/20 45/46/109
f 45/46/109 18/18/20 79/103/110
f 18/18/20 20/20/22 79/103/110
f 79/103/110 20/20/22 80/104/111
f 20/20/22 22/22/24 80/104/111
f 80/104/111 22/22/24 24/24/26
f 64/105/78 80/104/111 26/26/28
f 26/26/28 80/104/111 24/24/26
f 77/92/112 81/106/113 15/94/17
f 15/94/17 81/106/113 17/107/18
f 81/106/113 82/108/114 17/107/18
f 17/107/18 82/108/114 19/67/21
f 82/108/114 61/65/73 19/67/21
f 56/59/69 58/60/70 77/92/112
f 77/92/112 58/60/70 81/106/113
f 58/60/70 59/62/71 81/106/113
f 81/106/113 59/62/71 82/108/114
f 59/62/71 60/64/72 82/108/114
f 82/108/114 60/64/72 61/65/73
f 52/53/115 83/109/116 54/55/67
f 54/55/67 83/109/116 57/110/68
f 83/109/116 84/111/117 57/110/68
f 57/110/68 84/111/117 37/37/39
f 84/111/117 35/35/37 37/37/39
f 43/44/50 44/45/51 40/41/43
f 40/41/43 44/45/51 39/40/42
f 44/45/51 46/47/53 39/40/42
f 39/40/42 46/47/53 75/89/91
f 46/47/53 48/49/55 75/89/91
f 75/89/91 48/49/55 73/88/90
f 28/29/31 30/30/32 52/53/115
f 52/53/115 30/30/32 83/109/116
f 30/30/32 32/32/34 83/109/116
f 83/109/116 32/32/34 84/111/117
f 32/32/34 34/34/36 84/111/117
f 84/111/117 34/34/36 35/35/37
f 8/102/8 41/42/46 55/56/66
f 55/56/66 41/42/46 53/54/64
f 41/42/46 42/43/47 53/54/64
f 53/54/64 42/43/47 51/52/62
f 42/43/47 49/50/58 51/52/62
f 51/52/62 49/50/58 50/51/61
f 49/97/58 10/11/11 50/85/61
f 50/85/61 10/11/11 71/83/87
f 10/11/11 12/12/12 71/83/87
f 71/83/87 12/12/12 69/81/85
f 70/82/118 85/112/119 27/84/29
f 27/84/29 85/112/119 29/113/30
f 85/112/119 86/114/120 29/113/30
f 29/113/30 86/114/120 31/79/33
f 86/114/120 68/77/83 31/79/33
f 63/71/79 65/72/80 70/82/118
f 70/82/118 65/72/80 85/112/119
f 65/72/80 66/74/81 85/112/119
f 85/112/119 66/74/81 86/114/120
f 66/74/81 67/76/82 86/114/120
f 86/114/120 67/76/82 68/77/83
f 64/105/78 47/48/77 79/103/110
f 79/103/110 47/48/77 45/46/109
f 40/100/43 62/68/76 43/95/50
f 43/95/50 62/68/76 78/93/95
f 62/68/76 6/7/7 78/93/95
f 78/93/95 6/7/7 76/91/93
f 6/7/7 8/8/8 76/91/93
f 76/91/93 8/8/8 55/90/66
f 80/104/111 64/105/78 79/103/110
f 74/87/101 72/86/104 2/3/3
f 4/4/4 7/101/16 2/3/3
